<svg xmlns="http://www.w3.org/2000/svg" viewBox="0 0 64 64">
  <rect width="64" height="64" rx="12" fill="#ffffff"/>
  <path d="M22 50 L13 56 L13 47 C13 31 22 14 36 13 C49 12 54 22 54 32 C54 45 45 53 33 53 C28 53 24 52 22 50 Z"
        fill="#ffffff" stroke="#1e2c5e" stroke-width="3.2" stroke-linecap="round" stroke-linejoin="round"/>
  <path d="M52 20 L60 18 L54 25 Z" fill="#f25445"/>
  <circle cx="44" cy="22" r="1.7" fill="#1e2c5e"/>
  <path d="M30 47 L30 30 C30 25 33 22 38 22 C42.5 22 45 25.5 45 29.5 C45 33.5 42.2 36.5 37.5 36.5 L30 36.5"
        fill="none" stroke="#f25445" stroke-width="3.2" stroke-linecap="round" stroke-linejoin="round"/>
</svg>
